ply
format ascii 1.0
element vertex 8
property float32 x
property float32 y
property float32 z
property char character
property uchar unsigned_character
property short short_integer
property ushort unsigned_short_integer
property int integer
property uint unsigned_integer
property float single_precision_float
property double double_precision_float
element face 6
property list uint8 int32 vertex_indices
end_header
0.0 0.0 0.0 5 25 250 500 1000 2500 0.5 25.5
0.0 0.0 1.0 5 25 250 500 1000 2500 0.5 25.5
0.0 1.0 0.0 5 25 250 500 1000 2500 0.5 25.5
0.0 1.0 1.0 5 25 250 500 1000 2500 0.5 25.5
1.0 0.0 0.0 5 25 250 500 1000 2500 0.5 25.5
1.0 0.0 1.0 5 25 250 500 1000 2500 0.5 25.5
1.0 1.0 0.0 5 25 250 500 1000 2500 0.5 25.5
1.0 1.0 1.0 5 25 250 500 1000 2500 0.5 25.5
4 0 2 6 4
4 4 6 7 5
4 0 4 5 1
4 1 3 2 0
4 3 7 6 2
4 1 5 7 3 